<svg width={150} height={150} viewBox="0 0 50 50" fill="none" xmlns="http://www.w3.org/2000/svg">
     <path fillRule="evenodd" clipRule="evenodd" d="M24.8719 0.390625C15.6949 0.390625 8.25275 7.83086 8.25275 17.0098C8.25275 24.3523 13.0145 30.582 19.618 32.7793C20.4484 32.9332 20.7535 32.4188 20.7535 31.9797C20.7535 31.5836 20.7379 30.2742 20.7309 28.8859C16.107 29.891 15.1317 26.925 15.1317 26.925C14.3758 25.0039 13.2863 24.493 13.2863 24.493C11.7785 23.4617 13.3996 23.4828 13.3996 23.4828C15.0688 23.6 15.9477 25.1957 15.9477 25.1957C17.4297 27.7363 19.8356 27.0016 20.7836 26.577C20.9332 25.5027 21.3637 24.7691 21.8391 24.3543C18.1477 23.9344 14.2672 22.509 14.2672 16.141C14.2672 14.3266 14.9164 12.8441 15.9797 11.6801C15.807 11.2613 15.2383 9.5707 16.1406 7.28164C16.1406 7.28164 17.5359 6.83555 20.7109 8.98594C22.0371 8.61758 23.459 8.43281 24.8711 8.42656C26.2836 8.4332 27.7063 8.61797 29.0344 8.98594C32.2063 6.83594 33.6 7.28203 33.6 7.28203C34.5047 9.57109 33.9359 11.2613 33.7633 11.6805C34.8289 12.8438 35.4734 14.3266 35.4734 16.1414C35.4734 22.5242 31.5856 23.9297 27.8848 24.3406C28.4809 24.8563 29.0121 25.868 29.0121 27.4188C29.0121 29.6422 28.9934 31.4316 28.9934 31.9789C28.9934 32.4203 29.2926 32.9391 30.1348 32.7758C36.7348 30.5758 41.4902 24.3484 41.4902 17.0082C41.491 7.83125 34.0504 0.390625 24.8719 0.390625Z" fill="white" />
     <path d="M14.5477 24.2516C14.5106 24.3344 14.3805 24.359 14.2625 24.3024C14.1414 24.2477 14.0742 24.1356 14.1133 24.0524C14.1484 23.968 14.2789 23.9442 14.3996 24.0008C14.5207 24.0555 14.5895 24.1688 14.5481 24.2516H14.5477ZM15.2207 25.0031C15.1414 25.0762 14.9863 25.0422 14.8809 24.9258C14.7723 24.8098 14.752 24.6547 14.8324 24.5805C14.9137 24.5071 15.0641 24.5414 15.1723 24.6574C15.2817 24.7746 15.3031 24.9281 15.2203 25.0028L15.2207 25.0031ZM15.8758 25.9594C15.7742 26.0305 15.6074 25.9641 15.5047 25.816C15.4024 25.6688 15.4024 25.4918 15.5067 25.4203C15.6098 25.3492 15.7738 25.4133 15.8777 25.5598C15.9801 25.7102 15.9801 25.8879 15.8758 25.9598V25.9594ZM16.7734 26.8844C16.6824 26.9848 16.4883 26.9578 16.3465 26.8207C16.2012 26.6867 16.1609 26.4965 16.252 26.3961C16.3445 26.2957 16.5395 26.3239 16.6824 26.4598C16.827 26.5934 16.8707 26.784 16.7734 26.884V26.8844ZM18.0125 27.4211C17.9719 27.5516 17.7852 27.6106 17.5969 27.5555C17.4086 27.4985 17.2859 27.3461 17.3234 27.2149C17.3625 27.0836 17.5508 27.0223 17.7402 27.0813C17.9277 27.1375 18.0508 27.2883 18.0121 27.4211H18.0125ZM19.3719 27.5207C19.377 27.6574 19.2172 27.7715 19.0195 27.7739C18.8211 27.7785 18.6602 27.6676 18.6578 27.5324C18.6578 27.3942 18.8141 27.2817 19.0125 27.2785C19.2102 27.2746 19.3719 27.3848 19.3719 27.5207ZM20.6375 27.3055C20.6609 27.4391 20.5242 27.5766 20.3277 27.6129C20.1348 27.6489 19.9567 27.566 19.9317 27.4332C19.9082 27.2965 20.0477 27.1598 20.2402 27.1239C20.4367 27.0895 20.6125 27.1699 20.6375 27.3059V27.3055Z" fill="white" />
     <path d="M9.58086 42.1053H5.40117C5.34937 42.1053 5.29969 42.1259 5.26307 42.1626C5.22644 42.1992 5.20586 42.2489 5.20586 42.3007V44.3444C5.20586 44.3962 5.22644 44.4459 5.26307 44.4825C5.29969 44.5191 5.34937 44.5397 5.40117 44.5397H7.03125V47.0788C7.03125 47.0788 6.66523 47.2038 5.65234 47.2038C4.45859 47.2038 2.79023 46.7678 2.79023 43.0991C2.79023 39.43 4.52773 38.9468 6.15898 38.9468C7.5707 38.9468 8.17852 39.1952 8.56602 39.3151C8.68711 39.3518 8.80039 39.2307 8.80039 39.1229L9.26641 37.1483C9.26716 37.1188 9.26073 37.0894 9.24767 37.0629C9.2346 37.0364 9.2153 37.0134 9.19141 36.996C9.03398 36.8835 8.07539 36.3475 5.65312 36.3475C2.8625 36.3475 0 37.5343 0 43.2421C0 48.9491 3.27734 49.7995 6.03906 49.7995C8.32578 49.7995 9.71289 48.8221 9.71289 48.8221C9.76992 48.7909 9.77617 48.7108 9.77617 48.6737V42.3003C9.77617 42.2485 9.75559 42.1988 9.71897 42.1622C9.68234 42.1255 9.63266 42.1053 9.58086 42.1053ZM30.9289 36.835H28.575C28.5493 36.8351 28.5239 36.8403 28.5002 36.8502C28.4765 36.8602 28.4551 36.8747 28.437 36.8929C28.4189 36.9112 28.4046 36.9328 28.3949 36.9566C28.3852 36.9804 28.3803 37.0058 28.3805 37.0315L28.3812 41.58H24.7125V37.0315C24.7127 37.0059 24.7078 36.9804 24.6981 36.9567C24.6884 36.9329 24.6742 36.9113 24.6561 36.8931C24.6381 36.8748 24.6167 36.8603 24.593 36.8503C24.5694 36.8404 24.544 36.8352 24.5184 36.835H22.1648C22.1392 36.8351 22.1138 36.8403 22.0901 36.8502C22.0664 36.8602 22.0449 36.8747 22.0268 36.8929C22.0088 36.9112 21.9945 36.9328 21.9848 36.9566C21.9751 36.9804 21.9702 37.0058 21.9703 37.0315V49.3479C21.9703 49.4561 22.0578 49.5444 22.1648 49.5444H24.5184C24.544 49.5443 24.5694 49.539 24.5931 49.5291C24.6168 49.5191 24.6382 49.5045 24.6563 49.4862C24.6743 49.4679 24.6885 49.4463 24.6982 49.4225C24.7078 49.3987 24.7127 49.3732 24.7125 49.3475V44.0796H28.3812L28.375 49.3475C28.375 49.4561 28.4625 49.5444 28.5703 49.5444H30.9289C30.9546 49.5443 30.98 49.539 31.0037 49.5291C31.0273 49.5191 31.0488 49.5045 31.0668 49.4862C31.0848 49.4679 31.0991 49.4463 31.1087 49.4225C31.1184 49.3987 31.1233 49.3732 31.123 49.3475V37.0311C31.123 36.9225 31.0371 36.835 30.9289 36.835ZM12.5047 37.1151C11.6672 37.1151 10.9875 37.7999 10.9875 38.6475C10.9875 39.494 11.6672 40.1807 12.5047 40.1807C13.343 40.1807 14.0223 39.494 14.0223 38.6475C14.0223 37.7999 13.3426 37.1151 12.5047 37.1151ZM13.6594 40.8682H11.3133C11.2055 40.8682 11.1094 40.9792 11.1094 41.087V49.2323C11.1094 49.4717 11.2586 49.5428 11.4516 49.5428H13.5648C13.7973 49.5428 13.8539 49.4288 13.8539 49.2284V46.7495V41.0647C13.854 41.0391 13.8491 41.0137 13.8393 40.9899C13.8296 40.9662 13.8153 40.9446 13.7973 40.9264C13.7792 40.9082 13.7577 40.8937 13.7341 40.8838C13.7104 40.8739 13.685 40.8683 13.6594 40.8682ZM40.068 40.8866H37.732C37.7064 40.8868 37.681 40.8921 37.6574 40.9021C37.6338 40.9121 37.6124 40.9266 37.5944 40.9449C37.5764 40.9632 37.5622 40.9848 37.5525 41.0086C37.5429 41.0324 37.5381 41.0578 37.5383 41.0835V47.1225C37.5383 47.1225 36.9445 47.5561 36.1027 47.5561C35.2609 47.5561 35.0375 47.1745 35.0375 46.3499V41.0835C35.0377 41.0578 35.0328 41.0323 35.0232 41.0085C35.0135 40.9847 34.9993 40.9631 34.9813 40.9448C34.9632 40.9265 34.9418 40.9119 34.9181 40.9019C34.8944 40.892 34.869 40.8867 34.8434 40.8866H32.473C32.4212 40.887 32.3716 40.908 32.3351 40.9449C32.2987 40.9818 32.2783 41.0316 32.2785 41.0835V46.7483C32.2785 49.1975 33.6437 49.7967 35.5215 49.7967C37.0621 49.7967 38.3043 48.9452 38.3043 48.9452C38.3043 48.9452 38.3629 49.3944 38.3902 49.4471C38.4176 49.5003 38.4867 49.5538 38.5621 49.5538L40.0699 49.5471C40.0957 49.547 40.1211 49.5419 40.1449 49.5319C40.1687 49.522 40.1902 49.5074 40.2084 49.4892C40.2265 49.4709 40.2408 49.4492 40.2506 49.4254C40.2604 49.4015 40.2653 49.376 40.2652 49.3503L40.2641 41.0823C40.2639 41.0305 40.2432 40.9808 40.2067 40.9441C40.1701 40.9074 40.1198 40.887 40.068 40.8866ZM46.4516 40.61C45.125 40.61 44.2227 41.2018 44.2227 41.2018V37.0311C44.2228 37.0055 44.2179 36.9801 44.2082 36.9563C44.1986 36.9325 44.1843 36.9109 44.1663 36.8927C44.1483 36.8744 44.1268 36.8599 44.1032 36.85C44.0795 36.84 44.0542 36.8348 44.0285 36.8346H41.6687C41.643 36.8346 41.6175 36.8397 41.5937 36.8496C41.57 36.8595 41.5484 36.874 41.5302 36.8923C41.5121 36.9105 41.4977 36.9322 41.488 36.956C41.4782 36.9799 41.4733 37.0054 41.4734 37.0311V49.3475C41.4733 49.3733 41.4782 49.3988 41.488 49.4226C41.4977 49.4465 41.5121 49.4681 41.5302 49.4864C41.5484 49.5047 41.57 49.5191 41.5937 49.529C41.6175 49.5389 41.643 49.544 41.6687 49.544H43.3062C43.3805 49.544 43.4359 49.5061 43.477 49.4393C43.5172 49.3729 43.5762 48.8714 43.5762 48.8714C43.5762 48.8714 44.541 49.7854 46.3684 49.7854C48.5129 49.7854 49.7434 48.6979 49.7434 44.9018C49.7434 41.1057 47.7789 40.61 46.4516 40.61ZM45.5297 47.5491C44.7199 47.5245 44.1703 47.1569 44.1703 47.1569V43.2565C44.1703 43.2565 44.7125 42.9245 45.3773 42.8643C46.2184 42.7889 47.0289 43.0432 47.0289 45.0495C47.0289 47.1655 46.6633 47.5835 45.5297 47.5491ZM20.6512 47.503C20.5484 47.503 20.2852 47.5448 20.0145 47.5448C19.1473 47.5448 18.8531 47.1417 18.8531 46.6198V43.1565H20.6187C20.6445 43.1565 20.6701 43.1514 20.6939 43.1415C20.7177 43.1316 20.7393 43.1171 20.7574 43.0988C20.7756 43.0805 20.7899 43.0587 20.7996 43.0349C20.8094 43.011 20.8143 42.9854 20.8141 42.9596V41.0628C20.8142 41.0371 20.8092 41.0116 20.7994 40.9878C20.7897 40.964 20.7753 40.9424 20.7571 40.9242C20.739 40.9059 20.7174 40.8915 20.6937 40.8816C20.6699 40.8718 20.6445 40.8667 20.6187 40.8667H18.8531L18.8504 38.5346C18.8504 38.446 18.8051 38.4018 18.7027 38.4018H16.2965C16.2035 38.4018 16.1531 38.4432 16.1531 38.5327V40.9428C16.1531 40.9428 14.9473 41.2339 14.866 41.2573C14.8254 41.2691 14.7898 41.2938 14.7645 41.3276C14.7391 41.3614 14.7254 41.4025 14.7254 41.4448V42.9593C14.7252 42.9849 14.7301 43.0103 14.7398 43.0341C14.7495 43.0578 14.7637 43.0795 14.7818 43.0977C14.7998 43.1159 14.8212 43.1305 14.8449 43.1404C14.8685 43.1504 14.8939 43.1556 14.9195 43.1557H16.1531V46.7995C16.1531 49.5065 18.0516 49.7721 19.3328 49.7721C19.9176 49.7721 20.618 49.5846 20.7336 49.5417C20.8039 49.5155 20.8441 49.4432 20.8441 49.3647L20.8457 47.6987C20.8449 47.6471 20.8241 47.5978 20.7877 47.5612C20.7512 47.5246 20.7028 47.504 20.6512 47.503Z" fill="white" />
</svg>