<svg width="48" height="48" viewBox="0 0 48 48" fill="none" xmlns="http://www.w3.org/2000/svg">
<g clip-path="url(#clip0)">
<path d="M40.8953 40.8967H33.7833V29.7587C33.7833 27.1027 33.7358 23.6837 30.0843 23.6837C26.38 23.6837 25.8132 26.5775 25.8132 29.5654V40.896H18.7013V17.9917H25.5288V21.1219H25.6244C26.3077 19.9536 27.295 18.9924 28.4813 18.3409C29.6676 17.6893 31.0084 17.3717 32.3609 17.4219C39.5693 17.4219 40.8983 22.1634 40.8983 28.3318L40.8953 40.8967V40.8967ZM10.6763 14.861C8.39688 14.8614 6.5487 13.0138 6.54832 10.7344C6.54795 8.45492 8.39538 6.60673 10.6748 6.60636C12.9543 6.6058 14.8024 8.45342 14.8028 10.7329C14.803 11.8275 14.3684 12.8774 13.5945 13.6516C12.8207 14.4257 11.771 14.8608 10.6763 14.861V14.861ZM14.2324 40.8969H7.11288V17.9917H14.2323V40.8967L14.2324 40.8969ZM44.4409 0.00129621H3.53913C1.60601 -0.0204538 0.0206953 1.52811 -0.00292969 3.46123V44.5337C0.0199453 46.4677 1.60507 48.0178 3.53895 47.9975H44.4409C46.3789 48.0215 47.9703 46.4715 47.9971 44.5337V3.45805C47.9695 1.52117 46.378 -0.0272038 44.4409 -0.00189129" fill="#0A66C2"/>
</g>
<defs>
<clipPath id="clip0">
<rect width="48" height="48" fill="white"/>
</clipPath>
</defs>
</svg>
